{
	"asset":{
		"generator":"Khronos glTF Blender I/O v3.6.27",
		"version":"2.0"
	},
	"scene":0,
	"scenes":[
		{
			"name":"Scene",
			"nodes":[
				0
			]
		}
	],
	"nodes":[
		{
			"mesh":0,
			"name":"darts_obj",
			"rotation":[
				0.7071068286895752,
				0,
				0,
				0.7071068286895752
			]
		}
	],
	"materials":[
		{
			"doubleSided":true,
			"name":"Material.001",
			"pbrMetallicRoughness":{
				"baseColorFactor":[
					0,
					0,
					0,
					1
				],
				"metallicFactor":0,
				"roughnessFactor":0.5
			}
		},
		{
			"doubleSided":true,
			"name":"Material.002",
			"pbrMetallicRoughness":{
				"baseColorFactor":[
					0.8000000715255737,
					0,
					0.005652034189552069,
					1
				],
				"metallicFactor":0,
				"roughnessFactor":0.5
			}
		},
		{
			"doubleSided":true,
			"name":"Material.003",
			"pbrMetallicRoughness":{
				"baseColorFactor":[
					0.6038148999214172,
					0.6038148999214172,
					0.6038148999214172,
					1
				],
				"metallicFactor":0,
				"roughnessFactor":0.5
			}
		}
	],
	"meshes":[
		{
			"name":"darts_obj",
			"primitives":[
				{
					"attributes":{
						"POSITION":0,
						"NORMAL":1,
						"TEXCOORD_0":2
					},
					"indices":3,
					"material":0
				},
				{
					"attributes":{
						"POSITION":4,
						"NORMAL":5,
						"TEXCOORD_0":6
					},
					"indices":7,
					"material":1
				},
				{
					"attributes":{
						"POSITION":8,
						"NORMAL":9,
						"TEXCOORD_0":10
					},
					"indices":11,
					"material":2
				}
			]
		}
	],
	"accessors":[
		{
			"bufferView":0,
			"componentType":5126,
			"count":2362,
			"max":[
				1.3102083206176758,
				0.11435519903898239,
				0.11451862007379532
			],
			"min":[
				-2.513401985168457,
				-0.11441411077976227,
				-0.11478065699338913
			],
			"type":"VEC3"
		},
		{
			"bufferView":1,
			"componentType":5126,
			"count":2362,
			"type":"VEC3"
		},
		{
			"bufferView":2,
			"componentType":5126,
			"count":2362,
			"type":"VEC2"
		},
		{
			"bufferView":3,
			"componentType":5123,
			"count":4800,
			"type":"SCALAR"
		},
		{
			"bufferView":4,
			"componentType":5126,
			"count":112,
			"max":[
				-2.0810647010803223,
				0.43736037611961365,
				0.4272709786891937
			],
			"min":[
				-3.7312707901000977,
				-0.4339312016963959,
				-0.44527044892311096
			],
			"type":"VEC3"
		},
		{
			"bufferView":5,
			"componentType":5126,
			"count":112,
			"type":"VEC3"
		},
		{
			"bufferView":6,
			"componentType":5126,
			"count":112,
			"type":"VEC2"
		},
		{
			"bufferView":7,
			"componentType":5123,
			"count":624,
			"type":"SCALAR"
		},
		{
			"bufferView":8,
			"componentType":5126,
			"count":4068,
			"max":[
				2.3159329891204834,
				0.1111295223236084,
				0.11357641965150833
			],
			"min":[
				-2.506744384765625,
				-0.11022583395242691,
				-0.10774911940097809
			],
			"type":"VEC3"
		},
		{
			"bufferView":9,
			"componentType":5126,
			"count":4068,
			"type":"VEC3"
		},
		{
			"bufferView":10,
			"componentType":5126,
			"count":4068,
			"type":"VEC2"
		},
		{
			"bufferView":11,
			"componentType":5123,
			"count":8592,
			"type":"SCALAR"
		}
	],
	"bufferViews":[
		{
			"buffer":0,
			"byteLength":28344,
			"byteOffset":0,
			"target":34962
		},
		{
			"buffer":0,
			"byteLength":28344,
			"byteOffset":28344,
			"target":34962
		},
		{
			"buffer":0,
			"byteLength":18896,
			"byteOffset":56688,
			"target":34962
		},
		{
			"buffer":0,
			"byteLength":9600,
			"byteOffset":75584,
			"target":34963
		},
		{
			"buffer":0,
			"byteLength":1344,
			"byteOffset":85184,
			"target":34962
		},
		{
			"buffer":0,
			"byteLength":1344,
			"byteOffset":86528,
			"target":34962
		},
		{
			"buffer":0,
			"byteLength":896,
			"byteOffset":87872,
			"target":34962
		},
		{
			"buffer":0,
			"byteLength":1248,
			"byteOffset":88768,
			"target":34963
		},
		{
			"buffer":0,
			"byteLength":48816,
			"byteOffset":90016,
			"target":34962
		},
		{
			"buffer":0,
			"byteLength":48816,
			"byteOffset":138832,
			"target":34962
		},
		{
			"buffer":0,
			"byteLength":32544,
			"byteOffset":187648,
			"target":34962
		},
		{
			"buffer":0,
			"byteLength":17184,
			"byteOffset":220192,
			"target":34963
		}
	],
	"buffers":[
		{
			"byteLength":237376,
			"uri":"dart.bin"
		}
	]
}
