{
	"asset":{
		"generator":"Khronos glTF Blender I/O v3.6.27",
		"version":"2.0"
	},
	"scene":0,
	"scenes":[
		{
			"name":"Scene",
			"nodes":[
				0,
				1
			]
		}
	],
	"nodes":[
		{
			"mesh":0,
			"name":"darts_obj",
			"rotation":[
				0.7071068286895752,
				0,
				0,
				0.7071068286895752
			]
		},
		{
			"camera":0,
			"name":"Camera",
			"rotation":[
				-0.2286359667778015,
				-0.15887953341007233,
				-0.037850428372621536,
				0.9597136378288269
			],
			"translation":[
				-1.8998957872390747,
				2.661226511001587,
				5.769556045532227
			]
		}
	],
	"cameras":[
		{
			"name":"Camera",
			"perspective":{
				"aspectRatio":1.7777777777777777,
				"yfov":0.39959652046304894,
				"zfar":1000,
				"znear":0.10000000149011612
			},
			"type":"perspective"
		}
	],
	"materials":[
		{
			"doubleSided":true,
			"name":"Material.001",
			"pbrMetallicRoughness":{
				"baseColorTexture":{
					"index":0
				},
				"metallicFactor":0,
				"roughnessFactor":0.5
			}
		}
	],
	"meshes":[
		{
			"name":"darts_obj",
			"primitives":[
				{
					"attributes":{
						"POSITION":0,
						"NORMAL":1,
						"TEXCOORD_0":2
					},
					"indices":3,
					"material":0
				},
				{
					"attributes":{
						"POSITION":4,
						"NORMAL":5,
						"TEXCOORD_0":6
					},
					"indices":7,
					"material":0
				}
			]
		}
	],
	"textures":[
		{
			"sampler":0,
			"source":0
		}
	],
	"images":[
		{
			"mimeType":"image/jpeg",
			"name":"Screenshot 2023-11-13 150350",
			"uri":"Screenshot%202023-11-13%20150350.jpg"
		}
	],
	"accessors":[
		{
			"bufferView":0,
			"componentType":5126,
			"count":2526,
			"max":[
				1.3102083206176758,
				0.43736037611961365,
				0.4272709786891937
			],
			"min":[
				-3.7312707901000977,
				-0.4339312016963959,
				-0.44527044892311096
			],
			"type":"VEC3"
		},
		{
			"bufferView":1,
			"componentType":5126,
			"count":2526,
			"type":"VEC3"
		},
		{
			"bufferView":2,
			"componentType":5126,
			"count":2526,
			"type":"VEC2"
		},
		{
			"bufferView":3,
			"componentType":5123,
			"count":5532,
			"type":"SCALAR"
		},
		{
			"bufferView":4,
			"componentType":5126,
			"count":4014,
			"max":[
				2.3159329891204834,
				0.1111295223236084,
				0.11357641965150833
			],
			"min":[
				-0.6068349480628967,
				-0.11022583395242691,
				-0.10774911940097809
			],
			"type":"VEC3"
		},
		{
			"bufferView":5,
			"componentType":5126,
			"count":4014,
			"type":"VEC3"
		},
		{
			"bufferView":6,
			"componentType":5126,
			"count":4014,
			"type":"VEC2"
		},
		{
			"bufferView":7,
			"componentType":5123,
			"count":8484,
			"type":"SCALAR"
		}
	],
	"bufferViews":[
		{
			"buffer":0,
			"byteLength":30312,
			"byteOffset":0,
			"target":34962
		},
		{
			"buffer":0,
			"byteLength":30312,
			"byteOffset":30312,
			"target":34962
		},
		{
			"buffer":0,
			"byteLength":20208,
			"byteOffset":60624,
			"target":34962
		},
		{
			"buffer":0,
			"byteLength":11064,
			"byteOffset":80832,
			"target":34963
		},
		{
			"buffer":0,
			"byteLength":48168,
			"byteOffset":91896,
			"target":34962
		},
		{
			"buffer":0,
			"byteLength":48168,
			"byteOffset":140064,
			"target":34962
		},
		{
			"buffer":0,
			"byteLength":32112,
			"byteOffset":188232,
			"target":34962
		},
		{
			"buffer":0,
			"byteLength":16968,
			"byteOffset":220344,
			"target":34963
		}
	],
	"samplers":[
		{
			"magFilter":9729,
			"minFilter":9987
		}
	],
	"buffers":[
		{
			"byteLength":237312,
			"uri":"dart.bin"
		}
	]
}
