{
	"asset":{
		"generator":"Khronos glTF Blender I/O v3.6.27",
		"version":"2.0"
	},
	"scene":0,
	"scenes":[
		{
			"name":"Scene",
			"nodes":[
				0
			]
		}
	],
	"nodes":[
		{
			"mesh":0,
			"name":"darts_obj",
			"rotation":[
				0.7071068286895752,
				0,
				0,
				0.7071068286895752
			]
		}
	],
	"materials":[
		{
			"doubleSided":true,
			"name":"black",
			"pbrMetallicRoughness":{
				"baseColorTexture":{
					"index":0
				},
				"metallicFactor":0,
				"roughnessFactor":0.5
			}
		},
		{
			"doubleSided":true,
			"name":"red",
			"pbrMetallicRoughness":{
				"baseColorTexture":{
					"index":1
				},
				"metallicFactor":0,
				"roughnessFactor":0.5
			}
		},
		{
			"doubleSided":true,
			"name":"grey",
			"pbrMetallicRoughness":{
				"baseColorTexture":{
					"index":2
				},
				"metallicFactor":0,
				"roughnessFactor":0.5
			}
		}
	],
	"meshes":[
		{
			"name":"darts_obj",
			"primitives":[
				{
					"attributes":{
						"POSITION":0,
						"NORMAL":1,
						"TEXCOORD_0":2
					},
					"indices":3,
					"material":0
				},
				{
					"attributes":{
						"POSITION":4,
						"NORMAL":5,
						"TEXCOORD_0":6
					},
					"indices":7,
					"material":1
				},
				{
					"attributes":{
						"POSITION":8,
						"NORMAL":9,
						"TEXCOORD_0":10
					},
					"indices":11,
					"material":2
				}
			]
		}
	],
	"textures":[
		{
			"sampler":0,
			"source":0
		},
		{
			"sampler":0,
			"source":1
		},
		{
			"sampler":0,
			"source":2
		}
	],
	"images":[
		{
			"mimeType":"image/png",
			"name":"black",
			"uri":"black.png"
		},
		{
			"mimeType":"image/png",
			"name":"red",
			"uri":"red.png"
		},
		{
			"mimeType":"image/png",
			"name":"grey",
			"uri":"grey.png"
		}
	],
	"accessors":[
		{
			"bufferView":0,
			"componentType":5126,
			"count":2356,
			"max":[
				0.11436989158391953,
				0.1143559142947197,
				2.513606548309326
			],
			"min":[
				-0.11492934823036194,
				-0.11441344767808914,
				-1.3100038766860962
			],
			"type":"VEC3"
		},
		{
			"bufferView":1,
			"componentType":5126,
			"count":2356,
			"type":"VEC3"
		},
		{
			"bufferView":2,
			"componentType":5126,
			"count":2356,
			"type":"VEC2"
		},
		{
			"bufferView":3,
			"componentType":5123,
			"count":4800,
			"type":"SCALAR"
		},
		{
			"bufferView":4,
			"componentType":5126,
			"count":112,
			"max":[
				0.4271223545074463,
				0.437360942363739,
				3.731476068496704
			],
			"min":[
				-0.4454188346862793,
				-0.4339310824871063,
				2.0812695026397705
			],
			"type":"VEC3"
		},
		{
			"bufferView":5,
			"componentType":5126,
			"count":112,
			"type":"VEC3"
		},
		{
			"bufferView":6,
			"componentType":5126,
			"count":112,
			"type":"VEC2"
		},
		{
			"bufferView":7,
			"componentType":5123,
			"count":624,
			"type":"SCALAR"
		},
		{
			"bufferView":8,
			"componentType":5126,
			"count":4087,
			"max":[
				0.11342763900756836,
				0.11113037168979645,
				2.5069491863250732
			],
			"min":[
				-0.10789799690246582,
				-0.11022492498159409,
				-2.315728187561035
			],
			"type":"VEC3"
		},
		{
			"bufferView":9,
			"componentType":5126,
			"count":4087,
			"type":"VEC3"
		},
		{
			"bufferView":10,
			"componentType":5126,
			"count":4087,
			"type":"VEC2"
		},
		{
			"bufferView":11,
			"componentType":5123,
			"count":8592,
			"type":"SCALAR"
		}
	],
	"bufferViews":[
		{
			"buffer":0,
			"byteLength":28272,
			"byteOffset":0,
			"target":34962
		},
		{
			"buffer":0,
			"byteLength":28272,
			"byteOffset":28272,
			"target":34962
		},
		{
			"buffer":0,
			"byteLength":18848,
			"byteOffset":56544,
			"target":34962
		},
		{
			"buffer":0,
			"byteLength":9600,
			"byteOffset":75392,
			"target":34963
		},
		{
			"buffer":0,
			"byteLength":1344,
			"byteOffset":84992,
			"target":34962
		},
		{
			"buffer":0,
			"byteLength":1344,
			"byteOffset":86336,
			"target":34962
		},
		{
			"buffer":0,
			"byteLength":896,
			"byteOffset":87680,
			"target":34962
		},
		{
			"buffer":0,
			"byteLength":1248,
			"byteOffset":88576,
			"target":34963
		},
		{
			"buffer":0,
			"byteLength":49044,
			"byteOffset":89824,
			"target":34962
		},
		{
			"buffer":0,
			"byteLength":49044,
			"byteOffset":138868,
			"target":34962
		},
		{
			"buffer":0,
			"byteLength":32696,
			"byteOffset":187912,
			"target":34962
		},
		{
			"buffer":0,
			"byteLength":17184,
			"byteOffset":220608,
			"target":34963
		}
	],
	"samplers":[
		{
			"magFilter":9729,
			"minFilter":9987
		}
	],
	"buffers":[
		{
			"byteLength":237792,
			"uri":"dart.bin"
		}
	]
}
